<svg width="124" height="16" viewBox="0 0 124 16" fill="none" xmlns="http://www.w3.org/2000/svg">
<path fill-rule="evenodd" clip-rule="evenodd" d="M117.525 2C114.309 2 111.667 4.6669 111.667 8C111.667 11.3331 114.309 14 117.525 14C119.266 14 120.833 13.2228 121.91 11.9779C122.272 11.5603 122.903 11.5148 123.321 11.8762C123.739 12.2376 123.784 12.8692 123.423 13.2868C121.987 14.9459 119.878 16 117.525 16C113.166 16 109.667 12.3989 109.667 8C109.667 3.60111 113.166 0 117.525 0C119.878 0 121.987 1.05412 123.423 2.71324C123.784 3.13085 123.739 3.76237 123.321 4.12379C122.903 4.48521 122.272 4.43966 121.91 4.02205C120.833 2.7772 119.266 2 117.525 2Z" fill="#00648F"/>
<path fill-rule="evenodd" clip-rule="evenodd" d="M104 0C104.552 0 105 0.447715 105 1V15C105 15.5523 104.552 16 104 16C103.448 16 103 15.5523 103 15V1C103 0.447715 103.448 0 104 0Z" fill="#00648F"/>
<path fill-rule="evenodd" clip-rule="evenodd" d="M85.6802 0.0525838C86.0867 -0.0846302 86.5354 0.0527499 86.7954 0.394019L95.6667 12.0375V1.00006C95.6667 0.447778 96.1144 6.24984e-05 96.6667 6.24984e-05C97.219 6.24984e-05 97.6667 0.447778 97.6667 1.00006V15.0001C97.6667 15.4291 97.393 15.8103 96.9865 15.9475C96.58 16.0848 96.1313 15.9474 95.8712 15.6061L87 3.96261V15.0001C87 15.5523 86.5523 16.0001 86 16.0001C85.4477 16.0001 85 15.5523 85 15.0001V1.00006C85 0.571026 85.2737 0.189798 85.6802 0.0525838Z" fill="#00648F"/>
<path fill-rule="evenodd" clip-rule="evenodd" d="M73.1668 2C69.9677 2 67.3335 4.66344 67.3335 8C67.3335 11.3366 69.9677 14 73.1668 14C76.3659 14 79.0002 11.3366 79.0002 8C79.0002 4.66344 76.3659 2 73.1668 2ZM65.3335 8C65.3335 3.60458 68.818 0 73.1668 0C77.5156 0 81.0002 3.60458 81.0002 8C81.0002 12.3954 77.5156 16 73.1668 16C68.818 16 65.3335 12.3954 65.3335 8Z" fill="#00648F"/>
<path fill-rule="evenodd" clip-rule="evenodd" d="M50 2C50 0.895431 50.8954 0 52 0H56.1613C57.0931 0 58.4422 0.215794 59.5896 1.00234C60.7955 1.82899 61.6774 3.22115 61.6774 5.32031C61.6774 7.4913 60.62 8.72186 59.5013 9.35157C59.3013 9.46416 59.1026 9.556 58.9123 9.63097L61.855 14.4813C62.1414 14.9535 61.9909 15.5685 61.5187 15.855C61.0465 16.1414 60.4315 15.9909 60.145 15.5187L56.7811 9.97396H52V15C52 15.5523 51.5523 16 51 16C50.4477 16 50 15.5523 50 15V2ZM52 7.97396V2L56.1613 2C56.8423 2 57.7514 2.16702 58.4588 2.65196C59.1077 3.09679 59.6774 3.86479 59.6774 5.32031C59.6774 6.70401 59.0682 7.30027 58.5202 7.60871C58.2176 7.77908 57.9051 7.87334 57.6618 7.9238C57.5422 7.9486 57.4451 7.96165 57.382 7.96832C57.3525 7.97145 57.3309 7.97313 57.3186 7.97396H52Z" fill="#00648F"/>
<path fill-rule="evenodd" clip-rule="evenodd" d="M34.3335 0C34.8871 0.000335881 35.3365 0.43828 35.3335 1C35.3297 1.76287 35.3312 3.15678 35.3327 4.4662C35.3339 5.46639 35.3349 6.41729 35.3335 7C35.3314 7.8515 35.3364 8.17668 35.3417 8.52127C35.3467 8.84131 35.3519 9.17809 35.3519 9.96879C35.3519 10.5631 35.4989 11.6012 36.0767 12.459C36.5951 13.2287 37.5243 13.956 39.3335 13.9981C41.1427 13.956 42.0719 13.2287 42.5903 12.459C43.1681 11.6012 43.3151 10.5631 43.3151 9.96879C43.3151 9.17809 43.3203 8.84131 43.3253 8.52127C43.3306 8.17668 43.3356 7.8515 43.3335 7C43.3321 6.41733 43.3331 5.46654 43.3343 4.46643C43.3357 3.15694 43.3373 1.76291 43.3335 1C43.3305 0.43828 43.7799 0.000335881 44.3335 0C44.8833 0 45.3306 0.449527 45.3335 1V7.33333V9.98645C45.3308 10.8172 45.1201 12.2831 44.2491 13.5763C43.3485 14.9134 41.7942 15.9536 39.3335 15.9985C36.8728 15.9536 35.3185 14.9134 34.4178 13.5763C33.5468 12.2831 33.3362 10.8172 33.3335 9.98645V7.33333V1C33.3364 0.449527 33.7837 0 34.3335 0Z" fill="#00648F"/>
<path fill-rule="evenodd" clip-rule="evenodd" d="M18 2C18 0.895431 18.8954 0 20 0H27.6667C28.219 0 28.6667 0.447715 28.6667 1C28.6667 1.55228 28.219 2 27.6667 2H20.6667C20.2985 2 20 2.29848 20 2.66667V7H27.6667C28.219 7 28.6667 7.44772 28.6667 8C28.6667 8.55229 28.219 9 27.6667 9H20V13.3333C20 13.7015 20.2985 14 20.6667 14H27.6667C28.219 14 28.6667 14.4477 28.6667 15C28.6667 15.5523 28.219 16 27.6667 16H20C18.8954 16 18 15.1046 18 14V2Z" fill="#00648F"/>
<path fill-rule="evenodd" clip-rule="evenodd" d="M1.01368 0.0525838C1.42018 -0.0846302 1.86891 0.0527499 2.12893 0.394019L11.0002 12.0375V1.00006C11.0002 0.447778 11.4479 6.24984e-05 12.0002 6.24984e-05C12.5524 6.24984e-05 13.0002 0.447778 13.0002 1.00006V15.0001C13.0002 15.4291 12.7265 15.8103 12.32 15.9475C11.9135 16.0848 11.4647 15.9474 11.2047 15.6061L2.3335 3.96261V15.0001C2.3335 15.5523 1.88578 16.0001 1.3335 16.0001C0.781211 16.0001 0.333496 15.5523 0.333496 15.0001V1.00006C0.333496 0.571026 0.607174 0.189798 1.01368 0.0525838Z" fill="#00648F"/>
</svg>
